<svg xmlns="http://www.w3.org/2000/svg" version="1.1" xmlns:xlink="http://www.w3.org/1999/xlink" xmlns:svgjs="http://svgjs.dev/svgjs" width="1000" height="351" viewBox="0 0 1000 351"><g transform="matrix(1,0,0,1,-0.6060606060606233,-0.2872228462835551)"><svg viewBox="0 0 396 139" data-background-color="#ffffff" preserveAspectRatio="xMidYMid meet" height="351" width="1000" xmlns="http://www.w3.org/2000/svg" xmlns:xlink="http://www.w3.org/1999/xlink"><g id="tight-bounds" transform="matrix(1,0,0,1,0.2400000000000091,0.11374352032311208)"><svg viewBox="0 0 395.52 138.77251295935378" height="138.77251295935378" width="395.52"><g><svg viewBox="0 0 629.9108007532726 221.0110860658638" height="138.77251295935378" width="395.52"><g transform="matrix(1,0,0,1,232.41320075327272,68.2956335474728)"><svg viewBox="0 0 397.4975999999999 84.41981897091819" height="84.41981897091819" width="397.4975999999999"><g id="textblocktransform"><svg viewBox="0 0 397.4975999999999 84.41981897091819" height="84.41981897091819" width="397.4975999999999" id="textblock"><g><rect width="397.4975999999999" height="4.35560781059021" x="0" y="53.42944314345408" fill="#77d4fc" opacity="1" stroke-width="0" stroke="transparent" fill-opacity="1" class="rect-o-0" data-fill-palette-color="primary" rx="1%" id="o-0" data-palette-color="#77d4fc"></rect></g><g transform="matrix(1,0,0,1,0.9887999999999693,0)"><svg viewBox="0 0 395.52 48.29849153412006" height="48.29849153412006" width="395.52"><g transform="matrix(1,0,0,1,0,0)"><svg width="395.52" viewBox="2 -35 292.3299865722656 35.70000076293945" height="48.29849153412006" data-palette-color="#77d4fc"><path d="M20.6-29.75Q17.35-29.75 14.68-28.23 12-26.7 10.45-23.85 8.9-21 8.9-17.15L8.9-17.15Q8.9-13.5 10.43-10.68 11.95-7.85 14.65-6.28 17.35-4.7 20.75-4.7L20.75-4.7Q26.45-4.7 30.3-7.5L30.3-7.5 30.3-13.1 20.2-13.1 20.2-18.05 36.25-18.05 36.25-4.65Q33.6-2.3 29.53-0.8 25.45 0.7 20.75 0.7L20.75 0.7Q15.15 0.7 10.88-1.6 6.6-3.9 4.3-7.98 2-12.05 2-17.15L2-17.15Q2-22.15 4.28-26.23 6.55-30.3 10.45-32.65 14.35-35 19-35L19-35Q22.5-35 25.4-33.88 28.3-32.75 30.45-30.7L30.45-30.7 30.45-34.3 36.25-34.3 36.25-23.25 32-22.95Q30.3-25.9 27.43-27.83 24.55-29.75 20.6-29.75L20.6-29.75ZM54.95-14.5L54.95-9.15 41.8-9.15 41.8-14.5 54.95-14.5ZM74.95-34.3Q80.2-34.3 84.77-32.43 89.34-30.55 92.17-26.7 95-22.85 95-17.15L95-17.15Q95-11.5 92.17-7.63 89.34-3.75 84.77-1.88 80.2 0 74.95 0L74.95 0 58 0 58-5.25 64-5.25 64-29.05 58-29.05 58-34.3 74.95-34.3ZM74.25-5.25Q80.05-5.25 84.07-7.95 88.09-10.65 88.09-17.15L88.09-17.15Q88.09-23.65 84.07-26.35 80.05-29.05 74.25-29.05L74.25-29.05 70.65-29.05 70.65-5.25 74.25-5.25ZM132.69-5.25L137.49-5.25 137.49 0 120.54 0 120.54-5.25 125.79-5.25 123.29-11.75 109.64-11.75 107.14-5.25 112.89-5.25 112.89 0 96.19 0 96.19-5.25 100.89-5.25 111.04-29.1 106.74-29.1 106.74-34.3 126.79-34.3 126.79-29.1 122.44-29.1 132.69-5.25ZM111.44-16.45L121.49-16.45 116.59-29.1 116.34-29.1 111.44-16.45ZM158.34-29.05L152.29-29.05 152.29-5.25 158.34-5.25 158.34 0 139.64 0 139.64-5.25 145.64-5.25 145.64-29.05 139.64-29.05 139.64-34.3 158.34-34.3 158.34-29.05ZM197.89-7.2L200.99-2.9Q199.59-1.3 197.84-0.3 196.09 0.7 193.54 0.7L193.54 0.7Q188.94 0.7 185.86-2.53 182.79-5.75 181.09-12.55L181.09-12.55 180.59-14.15 174.44-14.15 174.44-5.2 180.29-5.2 180.29 0 161.79 0 161.79-5.25 167.79-5.25 167.79-29.05 161.79-29.05 161.79-34.3 181.99-34.3Q188.04-34.3 191.61-31.63 195.19-28.95 195.19-24.25L195.19-24.25Q195.19-20.35 192.91-17.85 190.64-15.35 186.44-14.5L186.44-14.5 186.99-12.95Q188.34-8.85 190.06-7.13 191.79-5.4 193.94-5.4L193.94-5.4Q196.19-5.4 197.89-7.2L197.89-7.2ZM174.44-29.05L174.44-19.05 182.19-19.05Q184.84-19.05 186.74-20.38 188.64-21.7 188.64-24.25L188.64-24.25Q188.64-26.6 186.79-27.83 184.94-29.05 182.19-29.05L182.19-29.05 174.44-29.05ZM220.34-29.05L214.29-29.05 214.29-5.25 220.34-5.25 220.34 0 201.64 0 201.64-5.25 207.64-5.25 207.64-29.05 201.64-29.05 201.64-34.3 220.34-34.3 220.34-29.05ZM258.43-22.4L252.63-22.4 252.63-29.05 236.23-29.05 236.23-19.4 242.83-19.4 242.83-23.7 247.78-23.7 247.78-10.35 242.83-10.35 242.83-14.65 236.23-14.65 236.23-5.25 252.63-5.25 252.63-11.9 258.43-11.9 258.43 0 223.78 0 223.78-5.25 229.73-5.25 229.73-29.05 223.78-29.05 223.78-34.3 258.43-34.3 258.43-22.4ZM280.68-20.05Q287.28-18.2 290.81-15.63 294.33-13.05 294.33-8.8L294.33-8.8Q294.33-5.9 292.83-3.78 291.33-1.65 288.66-0.5 285.98 0.65 282.63 0.65L282.63 0.65Q276.23 0.65 270.33-4.6L270.33-4.6 270.33-0.05 264.53-0.05 264.53-12.05 268.48-12.3Q271.13-8.8 274.96-6.7 278.78-4.6 282.23-4.6L282.23-4.6Q284.53-4.6 285.98-5.53 287.43-6.45 287.43-8.15L287.43-8.15Q287.43-10.05 284.93-11.5 282.43-12.95 276.43-14.55L276.43-14.55Q270.33-16.2 267.51-18.88 264.68-21.55 264.68-25.55L264.68-25.55Q264.68-28.35 266.26-30.5 267.83-32.65 270.41-33.83 272.98-35 275.98-35L275.98-35Q282.58-35 286.73-30.55L286.73-30.55 286.73-34.3 292.53-34.3 292.53-22.55 288.78-22.35Q286.93-25.95 283.93-27.85 280.93-29.75 277.58-29.75L277.58-29.75Q274.93-29.75 273.26-28.7 271.58-27.65 271.58-25.85L271.58-25.85Q271.58-24 273.66-22.7 275.73-21.4 280.68-20.05L280.68-20.05Z" opacity="1" transform="matrix(1,0,0,1,0,0)" fill="#77d4fc" class="wordmark-text-0" data-fill-palette-color="primary" id="text-0"></path></svg></g></svg></g><g transform="matrix(1,0,0,1,0,62.916002563378306)"><svg viewBox="0 0 232.209792 21.503816407539873" height="21.503816407539873" width="232.209792"><g transform="matrix(1,0,0,1,0,0)"><svg width="232.209792" viewBox="1.7999999523162842 -36.70000076293945 517.1799926757812 47.900001525878906" height="21.503816407539873" data-palette-color="#4b91f1"><path d="M11.85-19.05Q11.85-16.95 10.5-11.83 9.15-6.7 9.15-5.13 9.15-3.55 9.6-3.55L9.6-3.55Q9.9-3.55 11.9-4.5L11.9-4.5 12.5-4.8 13.35-3.05Q12.9-2.65 12.15-2.05 11.4-1.45 9.35-0.43 7.3 0.6 5.55 0.6 3.8 0.6 2.8-0.48 1.8-1.55 1.8-3.38 1.8-5.2 3.05-9.88 4.3-14.55 4.3-15.95L4.3-15.95Q4.3-18.05 3-19.9L3-19.9 2.55-20.5 2.6-21.15Q5.25-21.9 11.2-21.9L11.2-21.9Q11.85-21.15 11.85-19.05ZM6.15-27.38Q5.15-28.35 5.15-30 5.15-31.65 6.53-32.9 7.9-34.15 9.7-34.15 11.5-34.15 12.5-33.15 13.5-32.15 13.5-30.53 13.5-28.9 12.08-27.65 10.65-26.4 8.9-26.4 7.15-26.4 6.15-27.38ZM16.45 0.15L16.45 0.15 15.5 0.15Q15.5-2.2 16.92-8.85 18.35-15.5 18.35-16.4L18.35-16.4Q18.35-18.05 16.95-19.9L16.95-19.9 16.5-20.5 16.55-21.15Q19.25-21.9 25.2-21.9L25.2-21.9Q25.85-21.05 25.9-18.8L25.9-18.8Q30.25-22.15 33.25-22.15L33.25-22.15Q35.05-22.15 36.12-20.9 37.2-19.65 37.2-17.78 37.2-15.9 36.05-11.3 34.9-6.7 34.9-5.13 34.9-3.55 35.3-3.55L35.3-3.55Q35.6-3.55 37.4-4.5L37.4-4.5 38-4.8 38.9-3.05Q38.45-2.65 37.7-2.05 36.95-1.45 34.92-0.43 32.9 0.6 31.3 0.6L31.3 0.6Q27.65 0.6 27.65-3.55L27.65-3.55Q27.65-5.3 28.77-10 29.9-14.7 29.9-16.05 29.9-17.4 29.05-17.4L29.05-17.4Q27.6-17.4 25.5-16.15L25.5-16.15Q25.35-15.3 24.5-11.65L24.5-11.65Q22.75-3.8 22.75-0.55L22.75-0.55Q21 0.15 16.45 0.15ZM50.29-8.65L50.29-8.65Q50.29-14.9 54.07-18.53 57.84-22.15 62.64-22.15L62.64-22.15Q65.59-22.15 67.49-20.7 69.39-19.25 69.39-16.82 69.39-14.4 68.17-12.75 66.94-11.1 65.19-10.2L65.19-10.2Q61.64-8.45 58.69-8L58.69-8 57.49-7.85Q57.84-3.15 61.34-3.15L61.34-3.15Q62.54-3.15 63.89-3.75 65.24-4.35 65.99-4.95L65.99-4.95 66.74-5.55 67.94-3.95Q67.54-3.4 66.34-2.5 65.14-1.6 64.09-1L64.09-1Q61.19 0.6 57.74 0.6 54.29 0.6 52.29-1.85 50.29-4.3 50.29-8.65ZM57.44-10.3Q59.99-10.75 61.49-12.45 62.99-14.15 62.99-16.85 62.99-19.55 61.39-19.55L61.39-19.55Q59.49-19.55 58.47-16.32 57.44-13.1 57.44-10.3L57.44-10.3ZM75.32-22.15Q77.49-22.15 78.57-21.25 79.64-20.35 79.64-17.55L79.64-17.55Q79.64-16.05 78.74-11.43 77.84-6.8 77.84-5.8L77.84-5.8Q77.84-3.8 78.64-3.8L78.64-3.8Q80.54-3.8 82.82-6.63 85.09-9.45 85.19-11.35L85.19-11.35 81.79-15.15Q81.99-17.3 82.84-19.05 83.69-20.8 84.44-21.5L84.44-21.5 85.14-22.15Q87.29-22.15 88.39-21 89.49-19.85 89.49-18.3L89.49-18.3Q89.49-14.35 87.54-9.95 85.59-5.55 82.34-2.48 79.09 0.6 75.74 0.6L75.74 0.6Q73.64 0.6 72.52-0.7 71.39-2 71.39-4.13 71.39-6.25 71.72-9.85 72.04-13.45 72.04-17L72.04-17Q72.04-17.8 71.47-18.9 70.89-20 70.29-20.65L70.29-20.65 70.44-21.25Q73.14-22.15 75.32-22.15ZM89.94-8.65L89.94-8.65Q89.94-14.9 93.71-18.53 97.49-22.15 102.29-22.15L102.29-22.15Q105.24-22.15 107.14-20.7 109.04-19.25 109.04-16.82 109.04-14.4 107.81-12.75 106.59-11.1 104.84-10.2L104.84-10.2Q101.29-8.45 98.34-8L98.34-8 97.14-7.85Q97.49-3.15 100.99-3.15L100.99-3.15Q102.19-3.15 103.54-3.75 104.89-4.35 105.64-4.95L105.64-4.95 106.39-5.55 107.59-3.95Q107.19-3.4 105.99-2.5 104.79-1.6 103.74-1L103.74-1Q100.84 0.6 97.39 0.6 93.94 0.6 91.94-1.85 89.94-4.3 89.94-8.65ZM97.09-10.3Q99.64-10.75 101.14-12.45 102.64-14.15 102.64-16.85 102.64-19.55 101.04-19.55L101.04-19.55Q99.14-19.55 98.11-16.32 97.09-13.1 97.09-10.3L97.09-10.3ZM111.09 0.15L111.09 0.15 110.74 0.15Q110.64-0.25 110.64-1.68 110.64-3.1 111.99-9.35 113.34-15.6 113.34-16.5L113.34-16.5Q113.34-18.05 111.94-19.9L111.94-19.9 111.49-20.5 111.54-21.15Q114.24-21.9 120.19-21.9L120.19-21.9Q120.79-20.6 120.79-18.25L120.79-18.25Q121.34-19.15 123.09-20.65 124.84-22.15 126.69-22.15L126.69-22.15Q129.39-22.15 129.39-17.45L129.39-17.45Q129.14-17.15 128.71-16.68 128.29-16.2 127.01-15.35 125.74-14.5 124.54-14.3L124.54-14.3Q124.49-14.3 123.69-15.65 122.89-17 122.49-17L122.49-17Q121.24-16.55 120.29-15.5L120.29-15.5Q117.99-5.15 117.99-2.1L117.99-2.1Q117.99-1 118.04-0.55L118.04-0.55Q116.29 0.15 111.09 0.15ZM134.71 5.4Q133.03 6.4 133.03 7.35 133.03 8.3 134.11 8.3 135.18 8.3 136.53 7.28 137.88 6.25 138.78 3.95L138.78 3.95Q136.38 4.4 134.71 5.4ZM132.28 0.2L132.28 0.2Q128.08 0.2 128.08-4.4L128.08-4.4Q128.08-5.5 129.08-10.75 130.08-16 130.08-19.5L130.08-19.5Q130.08-20.25 129.88-20.9L129.88-20.9Q132.58-21.95 137.28-21.95L137.28-21.95Q137.53-21.25 137.53-19.55 137.53-17.85 136.43-12.5 135.33-7.15 135.33-5.6 135.33-4.05 136.63-4.05L136.63-4.05Q138.18-4.05 140.38-5.6L140.38-5.6Q140.63-8.55 142.38-21.15L142.38-21.15Q144.13-21.85 148.68-21.85L148.68-21.85 149.63-21.85Q148.68-18.1 147.78-11.05 146.88-4 146.33-1.25L146.33-1.25Q145.28 4.25 142.46 7.73 139.63 11.2 135.08 11.2L135.08 11.2Q133.28 11.2 131.81 10.25 130.33 9.3 130.33 7.8L130.33 7.8Q130.33 5.8 132.78 4.15 135.23 2.5 139.38 1.6L139.38 1.6Q139.83-0.6 140.08-2.65L140.08-2.65Q136.03 0.2 132.28 0.2ZM176.18-6.55L176.18-6.55Q176.18-3.4 173.4-1.4 170.63 0.6 167.08 0.6 163.53 0.6 161.45-0.9 159.38-2.4 159.38-3.55L159.38-3.55Q159.38-4.25 161.13-5.83 162.88-7.4 164.08-7.75L164.08-7.75Q166.58-5.9 168.18-1.9L168.18-1.9Q170.03-2.05 170.03-3.65L170.03-3.65Q170.03-5.95 165.98-10.18 161.93-14.4 161.93-16.9 161.93-19.4 164.18-20.78 166.43-22.15 169.6-22.15 172.78-22.15 174.38-21.03 175.98-19.9 175.98-17.98 175.98-16.05 172.93-12.65L172.93-12.65Q173.28-12.3 173.83-11.73 174.38-11.15 175.28-9.55 176.18-7.95 176.18-6.55ZM171.38-14.4Q173.48-16.2 173.48-17.95 173.48-19.7 171.08-19.7L171.08-19.7Q169.93-19.7 169.18-19.23 168.43-18.75 168.43-18.15L168.43-18.15Q168.43-17.05 170.63-15.05L170.63-15.05 171.38-14.4ZM189.28-21.55L194.13-21.55Q194.03-20.3 193.28-18.65L193.28-18.65Q191.38-18.85 189.68-18.85L189.68-18.85 188.78-18.85Q186.48-7.7 186.48-4.95L186.48-4.95Q186.48-3.5 187.1-3.5 187.73-3.5 190.43-4.75L190.43-4.75 191.33-3.1Q186.88 0.6 183.08 0.6L183.08 0.6Q181.33 0.6 180.2-0.5 179.08-1.6 179.08-3.43 179.08-5.25 179.5-7.55 179.93-9.85 180.68-13.18 181.43-16.5 181.78-18.55L181.78-18.55Q179.93-18.4 179.03-18.25L179.03-18.25Q178.93-18.85 178.93-19.88 178.93-20.9 179.08-21.55L179.08-21.55 182.23-21.55Q182.63-24.25 182.63-26.65L182.63-26.65 182.58-28.2 182.58-28.35Q186.48-29.7 189.93-29.7L189.93-29.7Q190.13-28.7 190.13-27.2 190.13-25.7 189.28-21.55L189.28-21.55ZM193.02-8.65L193.02-8.65Q193.02-14.9 196.8-18.53 200.57-22.15 205.37-22.15L205.37-22.15Q208.32-22.15 210.22-20.7 212.12-19.25 212.12-16.82 212.12-14.4 210.9-12.75 209.67-11.1 207.92-10.2L207.92-10.2Q204.37-8.45 201.42-8L201.42-8 200.22-7.85Q200.57-3.15 204.07-3.15L204.07-3.15Q205.27-3.15 206.62-3.75 207.97-4.35 208.72-4.95L208.72-4.95 209.47-5.55 210.67-3.95Q210.27-3.4 209.07-2.5 207.87-1.6 206.82-1L206.82-1Q203.92 0.6 200.47 0.6 197.02 0.6 195.02-1.85 193.02-4.3 193.02-8.65ZM200.17-10.3Q202.72-10.75 204.22-12.45 205.72-14.15 205.72-16.85 205.72-19.55 204.12-19.55L204.12-19.55Q202.22-19.55 201.2-16.32 200.17-13.1 200.17-10.3L200.17-10.3ZM211.72 11.2L211.72 11.2Q211.47 10.6 211.47 8.55 211.47 6.5 213.42-2.48 215.37-11.45 215.37-16.3L215.37-16.3Q215.37-17.25 214.92-18.32 214.47-19.4 213.97-20L213.97-20 213.52-20.55 213.57-21.2Q215.92-21.95 221.87-21.95L221.87-21.95Q222.42-20.9 222.57-19L222.57-19Q226.42-22.15 229-22.15 231.57-22.15 233.15-20 234.72-17.85 234.72-13.7L234.72-13.7Q234.72-6.45 232.07-2.93 229.42 0.6 225.37 0.6L225.37 0.6Q223.27 0.6 221.87 0L221.87 0 221.37-0.2 221.72-2.15Q222.17-2.05 222.77-2.05L222.77-2.05Q224.07-2.05 225.05-3.25 226.02-4.45 226.52-6.3L226.52-6.3Q227.52-10 227.52-13.15L227.52-13.15Q227.52-17.65 225.67-17.65L225.67-17.65Q224.22-17.65 222.57-16.5L222.57-16.5Q222.37-13 220.52-4.25 218.67 4.5 218.67 9.85L218.67 9.85Q215.97 10.95 211.72 11.2ZM254.02 0.6L254.02 0.6Q250.57 0.6 248.62-1.83 246.67-4.25 246.67-8.6L246.67-8.6Q246.67-14.15 249.64-18.15 252.62-22.15 257.87-22.15L257.87-22.15 259.67-22.05Q260.51-22.5 261.56-22.5L261.56-22.5Q265.51-22.5 265.51-15.05L265.51-15.05Q267.56-15.15 269.67-15.6L269.67-15.6 270.47-15.8 270.76-13.85Q269.12-13.15 266.31-12.6L266.31-12.6 265.31-12.4Q264.37-7.15 261.47-3.28 258.56 0.6 254.02 0.6ZM256.72-3.7L256.72-3.7Q258.81-3.7 260.49-6.4 262.17-9.1 262.81-12.1L262.81-12.1Q257.47-12.1 257.47-16.1L257.47-16.1Q257.47-17.7 258.12-19.1L258.12-19.1 258.37-19.6Q258.17-19.7 257.87-19.7 257.56-19.7 257.42-19.6L257.42-19.6Q256.17-18.8 255.07-15.85 253.97-12.9 253.97-9.1L253.97-9.1Q253.97-3.7 256.72-3.7ZM277.41-21.55L282.06-21.55Q281.96-20.45 281.16-18.65L281.16-18.65Q279.26-18.85 277.41-18.85L277.41-18.85 277.21-18.85Q276.16-6.5 275.26-0.6 274.36 5.3 272.91 7.65L272.91 7.65Q271.11 7.6 269.19 7.18 267.26 6.75 266.56 6.3L266.56 6.3Q267.76 2.6 268.99-4.85 270.21-12.3 270.56-18.6L270.56-18.6Q269.16-18.5 267.46-18.25L267.46-18.25Q267.31-18.9 267.31-19.58 267.31-20.25 267.51-21.55L267.51-21.55 270.71-21.55Q270.81-25.9 271.16-28.15L271.16-28.15Q271.76-32.15 273.94-34.43 276.11-36.7 279.56-36.7L279.56-36.7Q281.76-36.7 283.04-35.73 284.31-34.75 284.31-32.65 284.31-30.55 282.41-27.23 280.51-23.9 277.41-21.55L277.41-21.55ZM277.51-24.7Q279.46-26.35 280.56-28.35 281.66-30.35 281.66-31.98 281.66-33.6 280.61-33.6L280.61-33.6Q278.41-33.6 277.81-28.55L277.81-28.55Q277.61-26.85 277.51-24.7L277.51-24.7ZM298.93 5.4Q297.26 6.4 297.26 7.35 297.26 8.3 298.33 8.3 299.41 8.3 300.76 7.28 302.11 6.25 303.01 3.95L303.01 3.95Q300.61 4.4 298.93 5.4ZM296.51 0.2L296.51 0.2Q292.31 0.2 292.31-4.4L292.31-4.4Q292.31-5.5 293.31-10.75 294.31-16 294.31-19.5L294.31-19.5Q294.31-20.25 294.11-20.9L294.11-20.9Q296.81-21.95 301.51-21.95L301.51-21.95Q301.76-21.25 301.76-19.55 301.76-17.85 300.66-12.5 299.56-7.15 299.56-5.6 299.56-4.05 300.86-4.05L300.86-4.05Q302.41-4.05 304.61-5.6L304.61-5.6Q304.86-8.55 306.61-21.15L306.61-21.15Q308.36-21.85 312.91-21.85L312.91-21.85 313.86-21.85Q312.91-18.1 312.01-11.05 311.11-4 310.56-1.25L310.56-1.25Q309.51 4.25 306.68 7.73 303.86 11.2 299.31 11.2L299.31 11.2Q297.51 11.2 296.03 10.25 294.56 9.3 294.56 7.8L294.56 7.8Q294.56 5.8 297.01 4.15 299.46 2.5 303.61 1.6L303.61 1.6Q304.06-0.6 304.31-2.65L304.31-2.65Q300.26 0.2 296.51 0.2ZM321.96 0.6L321.96 0.6Q318.51 0.6 316.56-1.83 314.61-4.25 314.61-8.6L314.61-8.6Q314.61-14.15 317.58-18.15 320.56-22.15 325.81-22.15L325.81-22.15 327.61-22.05Q328.46-22.5 329.51-22.5L329.51-22.5Q333.46-22.5 333.46-15.05L333.46-15.05Q335.51-15.15 337.61-15.6L337.61-15.6 338.41-15.8 338.71-13.85Q337.06-13.15 334.26-12.6L334.26-12.6 333.26-12.4Q332.31-7.15 329.41-3.28 326.51 0.6 321.96 0.6ZM324.66-3.7L324.66-3.7Q326.76-3.7 328.43-6.4 330.11-9.1 330.76-12.1L330.76-12.1Q325.41-12.1 325.41-16.1L325.41-16.1Q325.41-17.7 326.06-19.1L326.06-19.1 326.31-19.6Q326.11-19.7 325.81-19.7 325.51-19.7 325.36-19.6L325.36-19.6Q324.11-18.8 323.01-15.85 321.91-12.9 321.91-9.1L321.91-9.1Q321.91-3.7 324.66-3.7ZM335.3-3.78Q335.3-5.9 336.6-11.08 337.9-16.25 337.9-17.43 337.9-18.6 336.1-20.55L336.1-20.55 336.15-21.2Q339.55-21.9 345.1-21.9L345.1-21.9Q345.35-21.25 345.35-19.55 345.35-17.85 343.95-12.3 342.55-6.75 342.55-5.4 342.55-4.05 343.55-4.05L343.55-4.05Q345-4.05 346.9-5.1L346.9-5.1Q347.1-6.3 347.9-9.7L347.9-9.7Q349.7-17.7 349.7-21.15L349.7-21.15Q351.45-21.85 356-21.85L356-21.85 356.95-21.85Q356.95-19.5 355.55-12.68 354.15-5.85 354.15-4.67 354.15-3.5 354.65-3.5L354.65-3.5Q354.95-3.5 357.5-4.7L357.5-4.7 358.45-3.1Q354 0.6 350.65 0.6L350.65 0.6Q349.05 0.6 347.93-0.3 346.8-1.2 346.65-2.65L346.65-2.65Q342.6 0.65 339.3 0.65L339.3 0.65Q337.55 0.65 336.43-0.5 335.3-1.65 335.3-3.78ZM360.85 0.15L360.85 0.15 360.5 0.15Q360.4-0.25 360.4-1.68 360.4-3.1 361.75-9.35 363.1-15.6 363.1-16.5L363.1-16.5Q363.1-18.05 361.7-19.9L361.7-19.9 361.25-20.5 361.3-21.15Q364-21.9 369.95-21.9L369.95-21.9Q370.55-20.6 370.55-18.25L370.55-18.25Q371.1-19.15 372.85-20.65 374.6-22.15 376.45-22.15L376.45-22.15Q379.15-22.15 379.15-17.45L379.15-17.45Q378.9-17.15 378.48-16.68 378.05-16.2 376.78-15.35 375.5-14.5 374.3-14.3L374.3-14.3Q374.25-14.3 373.45-15.65 372.65-17 372.25-17L372.25-17Q371-16.55 370.05-15.5L370.05-15.5Q367.75-5.15 367.75-2.1L367.75-2.1Q367.75-1 367.8-0.55L367.8-0.55Q366.05 0.15 360.85 0.15ZM394.37 5.4Q392.69 6.4 392.69 7.35 392.69 8.3 393.77 8.3 394.85 8.3 396.19 7.28 397.55 6.25 398.44 3.95L398.44 3.95Q396.05 4.4 394.37 5.4ZM408.15-21.85L409.19-21.8Q409.4-21.6 409.4-20.93 409.4-20.25 409.3-19.48 409.19-18.7 408.94-16 408.69-13.3 408.44-11.3L408.44-11.3Q405.9 11.2 394.75 11.2L394.75 11.2Q392.94 11.2 391.47 10.25 390 9.3 390 7.8L390 7.8Q390 5.8 392.44 4.15 394.9 2.5 399.05 1.6L399.05 1.6Q399.05 1.55 399.35 0.2 399.65-1.15 399.75-2L399.75-2Q396.75 0.2 394.12 0.2 391.5 0.2 389.82-1.85 388.15-3.9 388.15-8.4L388.15-8.4Q388.15-14.3 390.8-18.23 393.44-22.15 397.8-22.15L397.8-22.15Q400.25-22.15 402.65-20.95L402.65-20.95Q405.19-21.85 408.15-21.85L408.15-21.85ZM400.05-19.2L400.05-19.2Q397.9-19.2 396.65-15.73 395.4-12.25 395.4-8.03 395.4-3.8 397.3-3.8L397.3-3.8Q398.55-3.8 400.25-4.75L400.25-4.75Q401.65-13.15 402.25-18.6L402.25-18.6Q400.85-19.2 400.05-19.2ZM412.19 0.15L412.19 0.15 411.84 0.15Q411.74-0.25 411.74-1.68 411.74-3.1 413.09-9.35 414.44-15.6 414.44-16.5L414.44-16.5Q414.44-18.05 413.04-19.9L413.04-19.9 412.59-20.5 412.64-21.15Q415.34-21.9 421.29-21.9L421.29-21.9Q421.89-20.6 421.89-18.25L421.89-18.25Q422.44-19.15 424.19-20.65 425.94-22.15 427.79-22.15L427.79-22.15Q430.49-22.15 430.49-17.45L430.49-17.45Q430.24-17.15 429.82-16.68 429.39-16.2 428.12-15.35 426.84-14.5 425.64-14.3L425.64-14.3Q425.59-14.3 424.79-15.65 423.99-17 423.59-17L423.59-17Q422.34-16.55 421.39-15.5L421.39-15.5Q419.09-5.15 419.09-2.1L419.09-2.1Q419.09-1 419.14-0.55L419.14-0.55Q417.39 0.15 412.19 0.15ZM436.39 0.6L436.39 0.6Q432.94 0.6 430.99-1.83 429.04-4.25 429.04-8.6L429.04-8.6Q429.04-14.15 432.01-18.15 434.99-22.15 440.24-22.15L440.24-22.15 442.04-22.05Q442.89-22.5 443.94-22.5L443.94-22.5Q447.89-22.5 447.89-15.05L447.89-15.05Q449.94-15.15 452.04-15.6L452.04-15.6 452.84-15.8 453.14-13.85Q451.49-13.15 448.69-12.6L448.69-12.6 447.69-12.4Q446.74-7.15 443.84-3.28 440.94 0.6 436.39 0.6ZM439.09-3.7L439.09-3.7Q441.19-3.7 442.87-6.4 444.54-9.1 445.19-12.1L445.19-12.1Q439.84-12.1 439.84-16.1L439.84-16.1Q439.84-17.7 440.49-19.1L440.49-19.1 440.74-19.6Q440.54-19.7 440.24-19.7 439.94-19.7 439.79-19.6L439.79-19.6Q438.54-18.8 437.44-15.85 436.34-12.9 436.34-9.1L436.34-9.1Q436.34-3.7 439.09-3.7ZM450.94-4.1L450.94-4.1 451.49-17.15Q451.49-18.85 449.69-20.65L449.69-20.65 449.79-21.25Q450.14-21.35 450.46-21.43 450.79-21.5 451.21-21.6 451.64-21.7 452.19-21.8 452.74-21.9 453.34-22L453.34-22Q454.74-22.15 455.96-22.15 457.19-22.15 458.06-21.15 458.94-20.15 458.94-17.98 458.94-15.8 458.26-11.78 457.59-7.75 457.59-5.78 457.59-3.8 458.54-3.8L458.54-3.8Q460.09-3.8 461.94-5.75L461.94-5.75Q461.99-6.55 462.59-10.85 463.19-15.15 463.19-17.1 463.19-19.05 462.89-20.45L462.89-20.45Q466.74-21.9 469.79-21.9L469.79-21.9Q470.44-21.45 470.44-18.98 470.44-16.5 469.59-12.13 468.74-7.75 468.74-5.78 468.74-3.8 469.54-3.8L469.54-3.8Q471.44-3.8 473.69-6.63 475.94-9.45 476.09-11.35L476.09-11.35 472.69-15.15Q472.89-17.3 473.74-19.05 474.59-20.8 475.34-21.5L475.34-21.5 476.04-22.15Q478.19-22.15 479.29-21 480.39-19.85 480.39-18.3L480.39-18.3Q480.39-14.35 478.44-9.95 476.49-5.55 473.19-2.48 469.89 0.6 466.49 0.6L466.49 0.6Q464.79 0.6 463.61-0.38 462.44-1.35 462.04-2.9L462.04-2.9Q458.54 0.6 455.24 0.6L455.24 0.6Q453.04 0.6 451.99-0.78 450.94-2.15 450.94-4.1ZM491.83-21.55L496.68-21.55Q496.58-20.3 495.83-18.65L495.83-18.65Q493.93-18.85 492.23-18.85L492.23-18.85 491.33-18.85Q489.03-7.7 489.03-4.95L489.03-4.95Q489.03-3.5 489.66-3.5 490.28-3.5 492.98-4.75L492.98-4.75 493.88-3.1Q489.43 0.6 485.63 0.6L485.63 0.6Q483.88 0.6 482.76-0.5 481.63-1.6 481.63-3.43 481.63-5.25 482.06-7.55 482.48-9.85 483.23-13.18 483.98-16.5 484.33-18.55L484.33-18.55Q482.48-18.4 481.58-18.25L481.58-18.25Q481.48-18.85 481.48-19.88 481.48-20.9 481.63-21.55L481.63-21.55 484.78-21.55Q485.18-24.25 485.18-26.65L485.18-26.65 485.13-28.2 485.13-28.35Q489.03-29.7 492.48-29.7L492.48-29.7Q492.68-28.7 492.68-27.2 492.68-25.7 491.83-21.55L491.83-21.55ZM501.63-33L501.63-33Q501.63-34.65 501.33-35.35L501.33-35.35Q505.23-36.7 508.68-36.7L508.68-36.7Q509.13-36.25 509.13-34.4L509.13-34.4Q509.13-31.1 506.33-19.2L506.33-19.2Q510.38-22.15 513.43-22.15L513.43-22.15Q515.33-22.15 516.31-20.95 517.28-19.75 517.28-17.78 517.28-15.8 516.13-11.33 514.98-6.85 514.98-5.2 514.98-3.55 515.38-3.55 515.78-3.55 517.48-4.45L517.48-4.45 518.08-4.75 518.98-3Q518.53-2.6 517.78-2 517.03-1.4 515.03-0.4 513.03 0.6 511.36 0.6 509.68 0.6 508.68-0.48 507.68-1.55 507.68-3.38 507.68-5.2 508.81-10.03 509.93-14.85 509.93-16.13 509.93-17.4 508.88-17.4L508.88-17.4Q507.58-17.4 505.63-16.3L505.63-16.3Q502.88-4.2 502.88-0.6L502.88-0.6Q500.78 0.2 495.73 0.2L495.73 0.2Q495.68-0.65 495.68-1.3L495.68-1.3Q495.68-3.45 498.66-16 501.63-28.55 501.63-33Z" opacity="1" transform="matrix(1,0,0,1,0,0)" fill="#4b91f1" class="slogan-text-1" data-fill-palette-color="secondary" id="text-1"></path></svg></g></svg></g></svg></g></svg></g><g><svg viewBox="0 0 221.0110860658638 221.0110860658638" height="221.0110860658638" width="221.0110860658638"><g><svg xmlns="http://www.w3.org/2000/svg" xmlns:xlink="http://www.w3.org/1999/xlink" version="1.1" baseProfile="tiny" x="0" y="0" viewBox="0 0 100 100" xml:space="preserve" height="221.0110860658638" width="221.0110860658638" class="icon-icon-0" data-fill-palette-color="accent" id="icon-0"><path d="M100 52.993v-6.004H53.466v-3.947h45.905c0 0-3.666-37.641-41.991-42.47v34.642h31.661c0 0-5.333-14.49-13.331-17.821v11.992H63.546V8.566c0 0 22.161 3.165 29.327 29.313l-39.407-0.232V0h-6.005v37.611L8.058 37.379c0 0 5.331-23.317 29.826-29.812l-0.333 21.818H25.554V17.061c0 0-9.998 4.996-13.997 18.154H43.05V0.739c0 0-37.326 5.496-42.491 42.303h46.902v3.947H0v6.004h47.461v4.537H0.642c5.166 36.806 42.492 42.302 42.492 42.302V65.357H11.64c3.999 13.158 13.997 18.154 13.997 18.154V71.187h11.998l0.333 21.818C13.473 86.51 8.141 63.192 8.141 63.192l39.32-0.231v36.988h6.005V62.925l39.49-0.231c-7.165 26.147-29.327 29.313-29.327 29.313V71.187h12.165v11.991c7.998-3.33 13.33-17.819 13.33-17.819H57.463V100c38.326-4.829 41.992-42.47 41.992-42.47H53.466v-4.537H100z" fill="#4b91f1" data-fill-palette-color="accent"></path></svg></g></svg></g></svg></g><defs></defs></svg><rect width="395.52" height="138.77251295935378" fill="none" stroke="none" visibility="hidden"></rect></g></svg></g></svg>